<svg xmlns="http://www.w3.org/2000/svg" viewBox="0 0 960 720" width="960" height="720">
<defs>
  <linearGradient id="table" x1="0.1" y1="0" x2="0.7" y2="1">
    <stop offset="0" stop-color="#f1e9da"/>
    <stop offset="0.52" stop-color="#e6dbc6"/>
    <stop offset="1" stop-color="#d4c6ad"/>
  </linearGradient>
  <radialGradient id="lamp" cx="0.34" cy="0.22" r="0.8">
    <stop offset="0" stop-color="#fff8e6" stop-opacity="0.85"/>
    <stop offset="0.42" stop-color="#fff2d8" stop-opacity="0.35"/>
    <stop offset="1" stop-color="#fff2d8" stop-opacity="0"/>
  </radialGradient>
  <radialGradient id="vignette" cx="0.5" cy="0.45" r="0.74">
    <stop offset="0.52" stop-color="#8a7a60" stop-opacity="0"/>
    <stop offset="1" stop-color="#8a7a60" stop-opacity="0.15"/>
  </radialGradient>
  <linearGradient id="porcelain" x1="0.12" y1="0" x2="0.88" y2="1">
    <stop offset="0" stop-color="#fdfbf5"/>
    <stop offset="0.42" stop-color="#faf6ee"/>
    <stop offset="1" stop-color="#e7dcc8"/>
  </linearGradient>
  <linearGradient id="porcelain2" x1="0.1" y1="0.1" x2="0.9" y2="1">
    <stop offset="0" stop-color="#f7f1e7"/>
    <stop offset="1" stop-color="#ddd1bb"/>
  </linearGradient>
  <linearGradient id="wood" x1="0" y1="0" x2="0.35" y2="1">
    <stop offset="0" stop-color="#e6c39a"/>
    <stop offset="0.5" stop-color="#cda06c"/>
    <stop offset="1" stop-color="#ac8050"/>
  </linearGradient>
  <linearGradient id="steam" x1="0" y1="1" x2="0" y2="0">
    <stop offset="0" stop-color="#ffffff" stop-opacity="0.9"/>
    <stop offset="0.6" stop-color="#ffffff" stop-opacity="0.3"/>
    <stop offset="1" stop-color="#ffffff" stop-opacity="0"/>
  </linearGradient>
  <filter id="b24" x="-35%" y="-35%" width="170%" height="170%"><feGaussianBlur stdDeviation="24"/></filter>
  <filter id="b12" x="-35%" y="-35%" width="170%" height="170%"><feGaussianBlur stdDeviation="12"/></filter>
  <filter id="b5" x="-35%" y="-35%" width="170%" height="170%"><feGaussianBlur stdDeviation="5"/></filter>
  <filter id="b2" x="-35%" y="-35%" width="170%" height="170%"><feGaussianBlur stdDeviation="2"/></filter>
  <filter id="grain" x="0" y="0" width="100%" height="100%">
    <feTurbulence type="fractalNoise" baseFrequency="0.85" numOctaves="3" stitchTiles="stitch"/>
    <feColorMatrix type="saturate" values="0"/>
  </filter>
  <linearGradient id="pancake" x1="0.1" y1="0" x2="0.7" y2="1">
    <stop offset="0" stop-color="#f7ddab"/>
    <stop offset="0.42" stop-color="#dcae5f"/>
    <stop offset="1" stop-color="#ab7830"/>
  </linearGradient>
  <linearGradient id="bread" x1="0.1" y1="0" x2="0.7" y2="1">
    <stop offset="0" stop-color="#fbe8c0"/>
    <stop offset="1" stop-color="#d8b077"/>
  </linearGradient>
  <linearGradient id="scallionStalk" x1="0" y1="0" x2="1" y2="0.3">
    <stop offset="0" stop-color="#f4f6e4"/>
    <stop offset="0.55" stop-color="#e8efd0"/>
    <stop offset="1" stop-color="#6f9c3e"/>
  </linearGradient></defs>
<rect width="960" height="720" fill="url(#table)"/>
<ellipse cx="330" cy="190" rx="560" ry="459.2" fill="url(#lamp)"/>

<rect x="150" y="179" width="660" height="430" rx="26" fill="#8c7c60" opacity="0.26" filter="url(#b24)"/>
<rect x="150" y="157" width="660" height="430" rx="26" fill="url(#wood)"/>
<rect x="150" y="157" width="660" height="430" rx="26" fill="none" stroke="#f4dcbb" stroke-width="3" opacity="0.5"/>
<rect x="160" y="167" width="640" height="410" rx="18" fill="none" stroke="#8a6234" stroke-width="2" opacity="0.28"/>
<path d="M168,183 C361.2,174 598.8,192 792,183" fill="none" stroke="#9a7442" stroke-width="2" opacity="0.3"/>
<path d="M168,230.25 C361.2,221.25 598.8,239.25 792,230.25" fill="none" stroke="#9a7442" stroke-width="2" opacity="0.3"/>
<path d="M168,277.5 C361.2,268.5 598.8,286.5 792,277.5" fill="none" stroke="#9a7442" stroke-width="2" opacity="0.3"/>
<path d="M168,324.75 C361.2,315.75 598.8,333.75 792,324.75" fill="none" stroke="#9a7442" stroke-width="2" opacity="0.3"/>
<path d="M168,372 C361.2,363 598.8,381 792,372" fill="none" stroke="#9a7442" stroke-width="2" opacity="0.3"/>
<path d="M168,419.25 C361.2,410.25 598.8,428.25 792,419.25" fill="none" stroke="#9a7442" stroke-width="2" opacity="0.3"/>
<path d="M168,466.5 C361.2,457.5 598.8,475.5 792,466.5" fill="none" stroke="#9a7442" stroke-width="2" opacity="0.3"/>
<path d="M168,513.75 C361.2,504.75 598.8,522.75 792,513.75" fill="none" stroke="#9a7442" stroke-width="2" opacity="0.3"/>
<path d="M168,561 C361.2,552 598.8,570 792,561" fill="none" stroke="#9a7442" stroke-width="2" opacity="0.3"/>


  <g transform="translate(470 300) rotate(-14)">
    <rect x="-215" y="-49" width="430" height="116" rx="58" fill="#a3947a" opacity="0.45" filter="url(#b12)"/>
    <rect x="-215" y="-58" width="430" height="116" rx="58" fill="url(#pancake)"/>
    <rect x="-215" y="-58" width="430" height="116" rx="58" fill="none" stroke="#8a5c22" stroke-width="2" opacity="0.5"/>
    <ellipse cx="-181.92" cy="-23.2" rx="4" ry="2.6" fill="#8a5c22" opacity="0.45"/><ellipse cx="-148.85" cy="4.64" rx="4" ry="2.6" fill="#8a5c22" opacity="0.45"/><ellipse cx="-115.77" cy="32.48" rx="4" ry="2.6" fill="#8a5c22" opacity="0.45"/><ellipse cx="-82.69" cy="-23.2" rx="4" ry="2.6" fill="#8a5c22" opacity="0.45"/><ellipse cx="-49.62" cy="4.64" rx="4" ry="2.6" fill="#8a5c22" opacity="0.45"/><ellipse cx="-16.54" cy="32.48" rx="4" ry="2.6" fill="#8a5c22" opacity="0.45"/><ellipse cx="16.54" cy="-23.2" rx="4" ry="2.6" fill="#8a5c22" opacity="0.45"/><ellipse cx="49.62" cy="4.64" rx="4" ry="2.6" fill="#8a5c22" opacity="0.45"/><ellipse cx="82.69" cy="32.48" rx="4" ry="2.6" fill="#8a5c22" opacity="0.45"/><ellipse cx="115.77" cy="-23.2" rx="4" ry="2.6" fill="#8a5c22" opacity="0.45"/><ellipse cx="148.85" cy="4.64" rx="4" ry="2.6" fill="#8a5c22" opacity="0.45"/><ellipse cx="181.92" cy="32.48" rx="4" ry="2.6" fill="#8a5c22" opacity="0.45"/>
    <rect x="-203" y="-34.8" width="396" height="18.56" rx="9.28" fill="#ffffff" opacity="0.32"/>
    <ellipse cx="209" cy="0" rx="13" ry="54" fill="#f2d9a4"/>
    <ellipse cx="209" cy="0" rx="13" ry="54" fill="none" stroke="#a87a34" stroke-width="1.6" opacity="0.7"/>
    <path d="M209,-50 C193,-11.6 193,11.6 209,50" fill="none" stroke="#a87a34" stroke-width="3" opacity="0.7"/>
    <path d="M209,-48 C207,0 207,0 209,48" fill="none" stroke="#a87a34" stroke-width="2" opacity="0.5"/>
  </g>

  <g transform="translate(496 404) rotate(8)">
    <rect x="-206" y="-45" width="412" height="108" rx="54" fill="#a3947a" opacity="0.45" filter="url(#b12)"/>
    <rect x="-206" y="-54" width="412" height="108" rx="54" fill="url(#pancake)"/>
    <rect x="-206" y="-54" width="412" height="108" rx="54" fill="none" stroke="#8a5c22" stroke-width="2" opacity="0.5"/>
    <ellipse cx="-174.31" cy="-21.6" rx="4" ry="2.6" fill="#8a5c22" opacity="0.45"/><ellipse cx="-142.62" cy="4.32" rx="4" ry="2.6" fill="#8a5c22" opacity="0.45"/><ellipse cx="-110.92" cy="30.24" rx="4" ry="2.6" fill="#8a5c22" opacity="0.45"/><ellipse cx="-79.23" cy="-21.6" rx="4" ry="2.6" fill="#8a5c22" opacity="0.45"/><ellipse cx="-47.54" cy="4.32" rx="4" ry="2.6" fill="#8a5c22" opacity="0.45"/><ellipse cx="-15.85" cy="30.24" rx="4" ry="2.6" fill="#8a5c22" opacity="0.45"/><ellipse cx="15.85" cy="-21.6" rx="4" ry="2.6" fill="#8a5c22" opacity="0.45"/><ellipse cx="47.54" cy="4.32" rx="4" ry="2.6" fill="#8a5c22" opacity="0.45"/><ellipse cx="79.23" cy="30.24" rx="4" ry="2.6" fill="#8a5c22" opacity="0.45"/><ellipse cx="110.92" cy="-21.6" rx="4" ry="2.6" fill="#8a5c22" opacity="0.45"/><ellipse cx="142.62" cy="4.32" rx="4" ry="2.6" fill="#8a5c22" opacity="0.45"/><ellipse cx="174.31" cy="30.24" rx="4" ry="2.6" fill="#8a5c22" opacity="0.45"/>
    <rect x="-194" y="-32.4" width="378" height="17.28" rx="8.64" fill="#ffffff" opacity="0.32"/>
    <ellipse cx="200" cy="0" rx="13" ry="50" fill="#f2d9a4"/>
    <ellipse cx="200" cy="0" rx="13" ry="50" fill="none" stroke="#a87a34" stroke-width="1.6" opacity="0.7"/>
    <path d="M200,-46 C184,-10.8 184,10.8 200,46" fill="none" stroke="#a87a34" stroke-width="3" opacity="0.7"/>
    <path d="M200,-44 C198,0 198,0 200,44" fill="none" stroke="#a87a34" stroke-width="2" opacity="0.5"/>
  </g>
<g transform="translate(656 494) rotate(-20)">
  <rect x="-146" y="-17" width="292" height="34" rx="17" fill="#a3947a" opacity="0.4" filter="url(#b12)"/>
  <rect x="-146" y="-20" width="292" height="34" rx="17" fill="url(#scallionStalk)"/>
  <rect x="-146" y="-20" width="292" height="34" rx="17" fill="none" stroke="#8aa05a" stroke-width="2" opacity="0.6"/>
  <path d="M-120,-14 C-40,-26 60,-26 128,-10" fill="none" stroke="#ffffff" stroke-width="4" opacity="0.5"/>
</g>
<g transform="translate(262 474)">
  <ellipse cx="0" cy="12" rx="66" ry="26" fill="#a3947a" opacity="0.45" filter="url(#b5)"/>
  <ellipse rx="62" ry="40" fill="url(#bread)"/>
  <ellipse rx="62" ry="40" fill="none" stroke="#a87a44" stroke-width="2" opacity="0.6"/>
  <ellipse rx="46" ry="29" fill="#4a2408"/>
  <ellipse rx="46" ry="29" fill="none" stroke="#7a3f12" stroke-width="2" opacity="0.7"/>
  <ellipse cx="-12" cy="-8" rx="18" ry="9" fill="#8a5220" opacity="0.7"/>
</g>
<ellipse cx="352" cy="250" rx="44" ry="10" fill="#fff3d6" opacity="0.28" filter="url(#b2)"/><ellipse cx="430" cy="388" rx="40" ry="10" fill="#fff3d6" opacity="0.24" filter="url(#b2)"/>
<g opacity="0.42">
<g opacity="0.85">
  <path d="M430,210 C404,132 464,82 432,2" fill="none" stroke="url(#steam)" stroke-width="15" stroke-linecap="round"/>
  <path d="M480,218 C450,118 510,70 484,-26" fill="none" stroke="url(#steam)" stroke-width="19" stroke-linecap="round"/>
  <path d="M530,210 C508,136 560,88 526,14" fill="none" stroke="url(#steam)" stroke-width="13" stroke-linecap="round"/>
</g></g>

<rect width="960" height="720" fill="url(#vignette)"/>
<rect width="960" height="720" filter="url(#grain)" opacity="0.07" style="mix-blend-mode:multiply"/>
</svg>
