<svg xmlns="http://www.w3.org/2000/svg" viewBox="0 0 960 720" width="960" height="720">
<defs>
  <linearGradient id="table" x1="0.1" y1="0" x2="0.7" y2="1">
    <stop offset="0" stop-color="#f1e9da"/>
    <stop offset="0.52" stop-color="#e6dbc6"/>
    <stop offset="1" stop-color="#d4c6ad"/>
  </linearGradient>
  <radialGradient id="lamp" cx="0.34" cy="0.22" r="0.8">
    <stop offset="0" stop-color="#fff8e6" stop-opacity="0.85"/>
    <stop offset="0.42" stop-color="#fff2d8" stop-opacity="0.35"/>
    <stop offset="1" stop-color="#fff2d8" stop-opacity="0"/>
  </radialGradient>
  <radialGradient id="vignette" cx="0.5" cy="0.45" r="0.74">
    <stop offset="0.52" stop-color="#8a7a60" stop-opacity="0"/>
    <stop offset="1" stop-color="#8a7a60" stop-opacity="0.15"/>
  </radialGradient>
  <linearGradient id="porcelain" x1="0.12" y1="0" x2="0.88" y2="1">
    <stop offset="0" stop-color="#fdfbf5"/>
    <stop offset="0.42" stop-color="#faf6ee"/>
    <stop offset="1" stop-color="#e7dcc8"/>
  </linearGradient>
  <linearGradient id="porcelain2" x1="0.1" y1="0.1" x2="0.9" y2="1">
    <stop offset="0" stop-color="#f7f1e7"/>
    <stop offset="1" stop-color="#ddd1bb"/>
  </linearGradient>
  <linearGradient id="wood" x1="0" y1="0" x2="0.35" y2="1">
    <stop offset="0" stop-color="#e6c39a"/>
    <stop offset="0.5" stop-color="#cda06c"/>
    <stop offset="1" stop-color="#ac8050"/>
  </linearGradient>
  <linearGradient id="steam" x1="0" y1="1" x2="0" y2="0">
    <stop offset="0" stop-color="#ffffff" stop-opacity="0.9"/>
    <stop offset="0.6" stop-color="#ffffff" stop-opacity="0.3"/>
    <stop offset="1" stop-color="#ffffff" stop-opacity="0"/>
  </linearGradient>
  <filter id="b24" x="-35%" y="-35%" width="170%" height="170%"><feGaussianBlur stdDeviation="24"/></filter>
  <filter id="b12" x="-35%" y="-35%" width="170%" height="170%"><feGaussianBlur stdDeviation="12"/></filter>
  <filter id="b5" x="-35%" y="-35%" width="170%" height="170%"><feGaussianBlur stdDeviation="5"/></filter>
  <filter id="b2" x="-35%" y="-35%" width="170%" height="170%"><feGaussianBlur stdDeviation="2"/></filter>
  <filter id="grain" x="0" y="0" width="100%" height="100%">
    <feTurbulence type="fractalNoise" baseFrequency="0.85" numOctaves="3" stitchTiles="stitch"/>
    <feColorMatrix type="saturate" values="0"/>
  </filter>
  <linearGradient id="beef" x1="0.15" y1="0" x2="0.85" y2="1">
    <stop offset="0" stop-color="#b45f42"/>
    <stop offset="0.45" stop-color="#883d27"/>
    <stop offset="1" stop-color="#572312"/>
  </linearGradient>
  <linearGradient id="niurouSauce" x1="0" y1="0" x2="0.6" y2="1">
    <stop offset="0" stop-color="#8e4a1c"/>
    <stop offset="1" stop-color="#4a2008"/>
  </linearGradient></defs>
<rect width="960" height="720" fill="url(#table)"/>
<ellipse cx="330" cy="190" rx="560" ry="459.2" fill="url(#lamp)"/>

<ellipse cx="480" cy="392" rx="292.6" ry="198.88" fill="#8c7c60" opacity="0.3" filter="url(#b24)"/>
<ellipse cx="480" cy="366" rx="308" ry="226" fill="url(#porcelain)"/>
<ellipse cx="480" cy="366" rx="308" ry="226" fill="none" stroke="#c3b49b" stroke-width="1.4" opacity="0.5"/>
<ellipse cx="480" cy="369" rx="243.32" ry="174.02" fill="url(#porcelain2)" opacity="0.9"/>
<ellipse cx="480" cy="369" rx="243.32" ry="174.02" fill="none" stroke="#cbbc9f" stroke-width="1.2" opacity="0.6"/>
<path d="M179.57,335.02 A303.38,222.61 0 0 1 780.43,335.02" fill="none" stroke="#ffffff" stroke-width="5" stroke-linecap="round" opacity="0.75"/>
<path d="M251.54,302.96 A246.4,176.28 0 0 1 708.46,302.96" fill="none" stroke="#ffffff" stroke-width="3" stroke-linecap="round" opacity="0.55"/>

<ellipse cx="484" cy="458" rx="248" ry="96" fill="#9a8b70" opacity="0.22" filter="url(#b12)"/>
<path d="M296,380 C314,312 398,278 488,282 C592,286 664,328 670,392 C676,458 596,494 492,496 C388,498 288,458 296,380 Z" fill="url(#niurouSauce)" opacity="0.88"/>

  <g transform="translate(400 302) rotate(-22)">
    <rect x="-70" y="-22" width="140" height="54" rx="12" fill="#9a8b70" opacity="0.4" filter="url(#b5)"/>
    <rect x="-70" y="-30" width="140" height="54" rx="12" fill="url(#beef)"/>
    <rect x="-70" y="-30" width="140" height="54" rx="12" fill="none" stroke="#3a170a" stroke-width="3" opacity="0.6"/>
    <path d="M-58,-18 C-40,-25 -20,-23 -4,-15" fill="none" stroke="#e8bf9a" stroke-width="3" opacity="0.45"/>
    <path d="M-56,0 C-30,-8 -4,-8 22,0" fill="none" stroke="#e8bf9a" stroke-width="3" opacity="0.4"/>
    <path d="M-42,14 C-18,8 8,8 30,14" fill="none" stroke="#e8bf9a" stroke-width="3" opacity="0.35"/>
    <path d="M44,-16 C54,-6 54,6 46,18" fill="none" stroke="#e8bf9a" stroke-width="3" opacity="0.4"/>
    <path d="M-64,-25 C-40,-34 -12,-34 10,-27" fill="none" stroke="#ffdcc0" stroke-width="4" stroke-linecap="round" opacity="0.4"/>
  </g>

  <g transform="translate(508 292) rotate(-8)">
    <rect x="-70" y="-22" width="140" height="54" rx="12" fill="#9a8b70" opacity="0.4" filter="url(#b5)"/>
    <rect x="-70" y="-30" width="140" height="54" rx="12" fill="url(#beef)"/>
    <rect x="-70" y="-30" width="140" height="54" rx="12" fill="none" stroke="#3a170a" stroke-width="3" opacity="0.6"/>
    <path d="M-58,-18 C-40,-25 -20,-23 -4,-15" fill="none" stroke="#e8bf9a" stroke-width="3" opacity="0.45"/>
    <path d="M-56,0 C-30,-8 -4,-8 22,0" fill="none" stroke="#e8bf9a" stroke-width="3" opacity="0.4"/>
    <path d="M-42,14 C-18,8 8,8 30,14" fill="none" stroke="#e8bf9a" stroke-width="3" opacity="0.35"/>
    <path d="M44,-16 C54,-6 54,6 46,18" fill="none" stroke="#e8bf9a" stroke-width="3" opacity="0.4"/>
    <path d="M-64,-25 C-40,-34 -12,-34 10,-27" fill="none" stroke="#ffdcc0" stroke-width="4" stroke-linecap="round" opacity="0.4"/>
  </g>

  <g transform="translate(612 318) rotate(8)">
    <rect x="-70" y="-22" width="140" height="54" rx="12" fill="#9a8b70" opacity="0.4" filter="url(#b5)"/>
    <rect x="-70" y="-30" width="140" height="54" rx="12" fill="url(#beef)"/>
    <rect x="-70" y="-30" width="140" height="54" rx="12" fill="none" stroke="#3a170a" stroke-width="3" opacity="0.6"/>
    <path d="M-58,-18 C-40,-25 -20,-23 -4,-15" fill="none" stroke="#e8bf9a" stroke-width="3" opacity="0.45"/>
    <path d="M-56,0 C-30,-8 -4,-8 22,0" fill="none" stroke="#e8bf9a" stroke-width="3" opacity="0.4"/>
    <path d="M-42,14 C-18,8 8,8 30,14" fill="none" stroke="#e8bf9a" stroke-width="3" opacity="0.35"/>
    <path d="M44,-16 C54,-6 54,6 46,18" fill="none" stroke="#e8bf9a" stroke-width="3" opacity="0.4"/>
    <path d="M-64,-25 C-40,-34 -12,-34 10,-27" fill="none" stroke="#ffdcc0" stroke-width="4" stroke-linecap="round" opacity="0.4"/>
  </g>

  <g transform="translate(376 388) rotate(-6)">
    <rect x="-70" y="-22" width="140" height="54" rx="12" fill="#9a8b70" opacity="0.4" filter="url(#b5)"/>
    <rect x="-70" y="-30" width="140" height="54" rx="12" fill="url(#beef)"/>
    <rect x="-70" y="-30" width="140" height="54" rx="12" fill="none" stroke="#3a170a" stroke-width="3" opacity="0.6"/>
    <path d="M-58,-18 C-40,-25 -20,-23 -4,-15" fill="none" stroke="#e8bf9a" stroke-width="3" opacity="0.45"/>
    <path d="M-56,0 C-30,-8 -4,-8 22,0" fill="none" stroke="#e8bf9a" stroke-width="3" opacity="0.4"/>
    <path d="M-42,14 C-18,8 8,8 30,14" fill="none" stroke="#e8bf9a" stroke-width="3" opacity="0.35"/>
    <path d="M44,-16 C54,-6 54,6 46,18" fill="none" stroke="#e8bf9a" stroke-width="3" opacity="0.4"/>
    <path d="M-64,-25 C-40,-34 -12,-34 10,-27" fill="none" stroke="#ffdcc0" stroke-width="4" stroke-linecap="round" opacity="0.4"/>
  </g>

  <g transform="translate(490 382) rotate(4)">
    <rect x="-70" y="-22" width="140" height="54" rx="12" fill="#9a8b70" opacity="0.4" filter="url(#b5)"/>
    <rect x="-70" y="-30" width="140" height="54" rx="12" fill="url(#beef)"/>
    <rect x="-70" y="-30" width="140" height="54" rx="12" fill="none" stroke="#3a170a" stroke-width="3" opacity="0.6"/>
    <path d="M-58,-18 C-40,-25 -20,-23 -4,-15" fill="none" stroke="#e8bf9a" stroke-width="3" opacity="0.45"/>
    <path d="M-56,0 C-30,-8 -4,-8 22,0" fill="none" stroke="#e8bf9a" stroke-width="3" opacity="0.4"/>
    <path d="M-42,14 C-18,8 8,8 30,14" fill="none" stroke="#e8bf9a" stroke-width="3" opacity="0.35"/>
    <path d="M44,-16 C54,-6 54,6 46,18" fill="none" stroke="#e8bf9a" stroke-width="3" opacity="0.4"/>
    <path d="M-64,-25 C-40,-34 -12,-34 10,-27" fill="none" stroke="#ffdcc0" stroke-width="4" stroke-linecap="round" opacity="0.4"/>
  </g>

  <g transform="translate(596 400) rotate(16)">
    <rect x="-70" y="-22" width="140" height="54" rx="12" fill="#9a8b70" opacity="0.4" filter="url(#b5)"/>
    <rect x="-70" y="-30" width="140" height="54" rx="12" fill="url(#beef)"/>
    <rect x="-70" y="-30" width="140" height="54" rx="12" fill="none" stroke="#3a170a" stroke-width="3" opacity="0.6"/>
    <path d="M-58,-18 C-40,-25 -20,-23 -4,-15" fill="none" stroke="#e8bf9a" stroke-width="3" opacity="0.45"/>
    <path d="M-56,0 C-30,-8 -4,-8 22,0" fill="none" stroke="#e8bf9a" stroke-width="3" opacity="0.4"/>
    <path d="M-42,14 C-18,8 8,8 30,14" fill="none" stroke="#e8bf9a" stroke-width="3" opacity="0.35"/>
    <path d="M44,-16 C54,-6 54,6 46,18" fill="none" stroke="#e8bf9a" stroke-width="3" opacity="0.4"/>
    <path d="M-64,-25 C-40,-34 -12,-34 10,-27" fill="none" stroke="#ffdcc0" stroke-width="4" stroke-linecap="round" opacity="0.4"/>
  </g>

  <g transform="translate(468 462) rotate(-2)">
    <rect x="-70" y="-22" width="140" height="54" rx="12" fill="#9a8b70" opacity="0.4" filter="url(#b5)"/>
    <rect x="-70" y="-30" width="140" height="54" rx="12" fill="url(#beef)"/>
    <rect x="-70" y="-30" width="140" height="54" rx="12" fill="none" stroke="#3a170a" stroke-width="3" opacity="0.6"/>
    <path d="M-58,-18 C-40,-25 -20,-23 -4,-15" fill="none" stroke="#e8bf9a" stroke-width="3" opacity="0.45"/>
    <path d="M-56,0 C-30,-8 -4,-8 22,0" fill="none" stroke="#e8bf9a" stroke-width="3" opacity="0.4"/>
    <path d="M-42,14 C-18,8 8,8 30,14" fill="none" stroke="#e8bf9a" stroke-width="3" opacity="0.35"/>
    <path d="M44,-16 C54,-6 54,6 46,18" fill="none" stroke="#e8bf9a" stroke-width="3" opacity="0.4"/>
    <path d="M-64,-25 C-40,-34 -12,-34 10,-27" fill="none" stroke="#ffdcc0" stroke-width="4" stroke-linecap="round" opacity="0.4"/>
  </g>
<ellipse cx="452" cy="264" rx="40" ry="12" fill="#fff3d6" opacity="0.18" filter="url(#b2)"/><ellipse cx="614" cy="356" rx="34" ry="11" fill="#fff3d6" opacity="0.16" filter="url(#b2)"/>
<g opacity="0.95">
  <path d="M336,272 C404,258 512,256 606,272" fill="none" stroke="#cfe894" stroke-width="5" stroke-linecap="round"/>
  <path d="M360,296 C430,284 520,284 604,298" fill="none" stroke="#f0f7d6" stroke-width="4" stroke-linecap="round"/>
</g>

<g transform="translate(268 424) rotate(-18) scale(0.95)">
  <path d="M0,0 C-16,-22 6,-46 30,-40 C26,-16 12,-2 0,0 Z" fill="#3f7a2c"/>
  <path d="M2,-2 C-8,-20 6,-38 26,-34 C22,-16 12,-4 2,-2 Z" fill="#59a03a"/>
  <path d="M4,-6 C4,-22 14,-32 26,-34" fill="none" stroke="#2f5f21" stroke-width="1.6" opacity="0.7"/>
</g>
<ellipse cx="464" cy="270" rx="6" ry="4" transform="rotate(10 464 270)" fill="#fbf1dc" opacity="0.92"/><ellipse cx="560" cy="460" rx="6" ry="4" transform="rotate(-12 560 460)" fill="#fbf1dc" opacity="0.92"/>

<rect width="960" height="720" fill="url(#vignette)"/>
<rect width="960" height="720" filter="url(#grain)" opacity="0.07" style="mix-blend-mode:multiply"/>
</svg>
