<svg xmlns="http://www.w3.org/2000/svg" viewBox="0 0 960 720" width="960" height="720">
<defs>
  <linearGradient id="table" x1="0.1" y1="0" x2="0.7" y2="1">
    <stop offset="0" stop-color="#f1e9da"/>
    <stop offset="0.52" stop-color="#e6dbc6"/>
    <stop offset="1" stop-color="#d4c6ad"/>
  </linearGradient>
  <radialGradient id="lamp" cx="0.34" cy="0.22" r="0.8">
    <stop offset="0" stop-color="#fff8e6" stop-opacity="0.85"/>
    <stop offset="0.42" stop-color="#fff2d8" stop-opacity="0.35"/>
    <stop offset="1" stop-color="#fff2d8" stop-opacity="0"/>
  </radialGradient>
  <radialGradient id="vignette" cx="0.5" cy="0.45" r="0.74">
    <stop offset="0.52" stop-color="#8a7a60" stop-opacity="0"/>
    <stop offset="1" stop-color="#8a7a60" stop-opacity="0.15"/>
  </radialGradient>
  <linearGradient id="porcelain" x1="0.12" y1="0" x2="0.88" y2="1">
    <stop offset="0" stop-color="#fdfbf5"/>
    <stop offset="0.42" stop-color="#faf6ee"/>
    <stop offset="1" stop-color="#e7dcc8"/>
  </linearGradient>
  <linearGradient id="porcelain2" x1="0.1" y1="0.1" x2="0.9" y2="1">
    <stop offset="0" stop-color="#f7f1e7"/>
    <stop offset="1" stop-color="#ddd1bb"/>
  </linearGradient>
  <linearGradient id="wood" x1="0" y1="0" x2="0.35" y2="1">
    <stop offset="0" stop-color="#e6c39a"/>
    <stop offset="0.5" stop-color="#cda06c"/>
    <stop offset="1" stop-color="#ac8050"/>
  </linearGradient>
  <linearGradient id="steam" x1="0" y1="1" x2="0" y2="0">
    <stop offset="0" stop-color="#ffffff" stop-opacity="0.9"/>
    <stop offset="0.6" stop-color="#ffffff" stop-opacity="0.3"/>
    <stop offset="1" stop-color="#ffffff" stop-opacity="0"/>
  </linearGradient>
  <filter id="b24" x="-35%" y="-35%" width="170%" height="170%"><feGaussianBlur stdDeviation="24"/></filter>
  <filter id="b12" x="-35%" y="-35%" width="170%" height="170%"><feGaussianBlur stdDeviation="12"/></filter>
  <filter id="b5" x="-35%" y="-35%" width="170%" height="170%"><feGaussianBlur stdDeviation="5"/></filter>
  <filter id="b2" x="-35%" y="-35%" width="170%" height="170%"><feGaussianBlur stdDeviation="2"/></filter>
  <filter id="grain" x="0" y="0" width="100%" height="100%">
    <feTurbulence type="fractalNoise" baseFrequency="0.85" numOctaves="3" stitchTiles="stitch"/>
    <feColorMatrix type="saturate" values="0"/>
  </filter>
  <radialGradient id="wallLight" cx="0.5" cy="0.1" r="0.9">
    <stop offset="0" stop-color="#fff6e2" stop-opacity="0.95"/>
    <stop offset="1" stop-color="#fff6e2" stop-opacity="0"/>
  </radialGradient>
  <radialGradient id="fireGlow" cx="0.5" cy="0.5" r="0.5">
    <stop offset="0" stop-color="#ffa63c" stop-opacity="0.42"/>
    <stop offset="0.5" stop-color="#ff8a20" stop-opacity="0.14"/>
    <stop offset="1" stop-color="#ff7a10" stop-opacity="0"/>
  </radialGradient>
  <radialGradient id="lampGlow" cx="0.5" cy="0.5" r="0.5">
    <stop offset="0" stop-color="#ffcf8e" stop-opacity="0.4"/>
    <stop offset="1" stop-color="#ffcf8e" stop-opacity="0"/>
  </radialGradient>
  <linearGradient id="sky" x1="0" y1="0" x2="0" y2="1">
    <stop offset="0" stop-color="#cfe2ee"/>
    <stop offset="0.5" stop-color="#e6eee9"/>
    <stop offset="1" stop-color="#f7f1e4"/>
  </linearGradient>
  <linearGradient id="floor" x1="0" y1="0" x2="0.2" y2="1">
    <stop offset="0" stop-color="#f0e8db"/>
    <stop offset="1" stop-color="#ded3c0"/>
  </linearGradient>
  <linearGradient id="woodTop" x1="0" y1="0" x2="0.3" y2="1">
    <stop offset="0" stop-color="#eed0a8"/>
    <stop offset="0.5" stop-color="#d3a974"/>
    <stop offset="1" stop-color="#b28651"/>
  </linearGradient>
  <linearGradient id="porc" x1="0.1" y1="0" x2="0.9" y2="1">
    <stop offset="0" stop-color="#ffffff"/>
    <stop offset="0.45" stop-color="#f7f0e4"/>
    <stop offset="1" stop-color="#dcd0ba"/>
  </linearGradient></defs>
<rect width="960" height="720" fill="url(#table)"/>
<ellipse cx="480" cy="200" rx="600" ry="492" fill="url(#lamp)"/>

<rect width="960" height="640" fill="#f6f1e8"/>
<rect width="960" height="380" fill="#e4efe9" opacity="0.9"/>
<rect width="960" height="380" fill="#ffffff" opacity="0.5"/>
<path d="M0,0 L0,380" stroke="#c8a068" stroke-width="4" opacity="0.7"/><path d="M120,0 L120,380" stroke="#c8a068" stroke-width="4" opacity="0.7"/><path d="M240,0 L240,380" stroke="#c8a068" stroke-width="4" opacity="0.7"/><path d="M360,0 L360,380" stroke="#c8a068" stroke-width="4" opacity="0.7"/><path d="M480,0 L480,380" stroke="#c8a068" stroke-width="4" opacity="0.7"/><path d="M600,0 L600,380" stroke="#c8a068" stroke-width="4" opacity="0.7"/><path d="M720,0 L720,380" stroke="#c8a068" stroke-width="4" opacity="0.7"/><path d="M840,0 L840,380" stroke="#c8a068" stroke-width="4" opacity="0.7"/><path d="M960,0 L960,380" stroke="#c8a068" stroke-width="4" opacity="0.7"/><path d="M0,0 L960,0" stroke="#c8a068" stroke-width="4" opacity="0.7"/><path d="M0,120 L960,120" stroke="#c8a068" stroke-width="4" opacity="0.7"/><path d="M0,240 L960,240" stroke="#c8a068" stroke-width="4" opacity="0.7"/><path d="M0,360 L960,360" stroke="#c8a068" stroke-width="4" opacity="0.7"/>
<rect y="380" width="960" height="26" fill="#e0d6c4"/>
<rect y="406" width="960" height="234" fill="url(#floor)"/>
<ellipse cx="480" cy="300" rx="420" ry="220" fill="#ffffff" opacity="0.5"/>
<rect x="60" y="470" width="840" height="46" rx="14" fill="url(#woodTop)"/>
<rect x="60" y="470" width="840" height="16" rx="8" fill="#f2ddbe" opacity="0.6"/>
<g transform="translate(470 424)">
  <ellipse cy="46" rx="130" ry="30" fill="#180e06" opacity="0.55" filter="url(#b12)"/>
  <ellipse cy="10" rx="128" ry="52" fill="url(#porc)"/>
  <ellipse cy="6" rx="128" ry="52" fill="none" stroke="#b8a78e" stroke-width="2" opacity="0.6"/>
  <ellipse cy="-4" rx="112" ry="42" fill="#e6dac2"/>
  <ellipse cy="-8" rx="86" ry="28" fill="#c9b691" opacity="0.7"/>
  <path d="M128,-8 C186,-24 210,-42 226,-66" fill="none" stroke="#f0e6d0" stroke-width="18" stroke-linecap="round"/>
  <path d="M128,-8 C186,-24 210,-42 226,-66" fill="none" stroke="#b8a78e" stroke-width="3" opacity="0.4"/>
  <path d="M-128,-6 C-168,-40 -152,-76 -118,-84 C-92,-90 -76,-66 -84,-42" fill="none" stroke="#f0e6d0" stroke-width="16" stroke-linecap="round"/>
  <ellipse cy="-46" rx="26" ry="14" fill="#f6efdd"/>
  <circle cy="-62" r="12" fill="#e0d4be"/>
  <path d="M-60,-56 C-20,-70 20,-70 60,-56" fill="none" stroke="#ffffff" stroke-width="5" opacity="0.4"/>
</g>

  <g transform="translate(214 492) scale(1)">
    <ellipse cy="16" rx="46" ry="18" fill="#2a1c12" opacity="0.5" filter="url(#b5)"/>
    <path d="M-46,-16 C-42,22 -22,34 0,34 C22,34 42,22 46,-16 Z" fill="url(#porc)"/>
    <ellipse cy="-16" rx="46" ry="16" fill="#e0d4be"/>
    <ellipse cy="-16" rx="38" ry="12" fill="#8a5a1c" opacity="0.85"/>
    <ellipse cx="-12" cy="-18" rx="16" ry="5" fill="#c99447" opacity="0.7"/>
    <path d="M-40,-14 C-34,18 -18,28 0,28" fill="none" stroke="#ffffff" stroke-width="4" opacity="0.4"/>
  </g>

  <g transform="translate(760 500) scale(0.9)">
    <ellipse cy="16" rx="46" ry="18" fill="#2a1c12" opacity="0.5" filter="url(#b5)"/>
    <path d="M-46,-16 C-42,22 -22,34 0,34 C22,34 42,22 46,-16 Z" fill="url(#porc)"/>
    <ellipse cy="-16" rx="46" ry="16" fill="#e0d4be"/>
    <ellipse cy="-16" rx="38" ry="12" fill="#8a5a1c" opacity="0.85"/>
    <ellipse cx="-12" cy="-18" rx="16" ry="5" fill="#c99447" opacity="0.7"/>
    <path d="M-40,-14 C-34,18 -18,28 0,28" fill="none" stroke="#ffffff" stroke-width="4" opacity="0.4"/>
  </g>
<g opacity="0.5">
<g opacity="0.85">
  <path d="M366,320 C340,242 400,192 368,112" fill="none" stroke="url(#steam)" stroke-width="15" stroke-linecap="round"/>
  <path d="M400,328 C370,228 430,180 404,84" fill="none" stroke="url(#steam)" stroke-width="19" stroke-linecap="round"/>
  <path d="M434,320 C412,246 464,198 430,124" fill="none" stroke="url(#steam)" stroke-width="13" stroke-linecap="round"/>
</g></g>
<ellipse cx="640" cy="516" rx="52" ry="14" fill="#f0e4cc" opacity="0.85"/>
<ellipse cx="640" cy="512" rx="38" ry="10" fill="#c99a4c" opacity="0.85"/>
<rect width="960" height="720" fill="url(#vignette)"/>
<rect width="960" height="720" filter="url(#grain)" opacity="0.07" style="mix-blend-mode:multiply"/>
</svg>
